<svg width="180" height="205" viewBox="0 0 180 205" fill="none" xmlns="http://www.w3.org/2000/svg">
  <path
    d="M32.7428 202.245C33.9555 203.465 35.4714 204.075 37.2904 204.075H48.5079C52.5502 204.075 54.8745 201.941 55.4809 197.673L60.938 160.787H96.3968V137.009H64.5761L72.4586 83.3573H96.3968V59.5797H75.7936L81.2507 22.6939C81.4528 20.8648 80.9475 19.3406 79.7348 18.1212C78.5221 16.9019 77.0063 16.2922 75.1872 16.2922H63.9698C61.9486 16.2922 60.4327 17.0035 59.4222 18.4261C58.4116 19.6455 57.7042 21.068 57.2999 22.6939L51.8428 59.5797H14.5524C12.5312 59.5797 10.9143 60.1894 9.70158 61.4087C8.48888 62.6281 7.88253 64.2539 7.88253 66.2862V76.6508C7.88253 78.6831 8.48888 80.3089 9.70158 81.5283C10.9143 82.7476 12.5312 83.3573 14.5524 83.3573H48.2047L40.3222 137.009H6.66984C4.64867 137.009 3.03174 137.619 1.81905 138.838C0.606349 140.058 0 141.684 0 143.716V154.081C0 156.113 0.606349 157.739 1.81905 158.958C3.03174 160.177 4.64867 160.787 6.66984 160.787H36.6841L31.227 197.673C31.0248 199.502 31.5301 201.026 32.7428 202.245Z"
    fill="#FFFFFF" />
  <path
    d="M120.248 44.0877C144 22.2922 116.867 -8.70781 94 2.29218V204.076H170.651C193.595 187.468 162.249 175.288 162.249 175.288C171.5 163.792 155.5 175.288 133 140.792C122 116.792 109.5 67.7922 135 63.7922C141 57.7922 129.338 54.9479 129.338 54.9479C136.5 47.7922 118 50.7922 116.867 47.2297C116.533 46.1779 117.5 45.7922 120.248 44.0877Z"
    fill="#FFFFFF" />
</svg>