<?xml version="1.0" encoding="UTF-8"?>
<svg id="logosandtypes_com" data-name="logosandtypes com" xmlns="http://www.w3.org/2000/svg" xmlns:xlink="http://www.w3.org/1999/xlink" viewBox="0 0 150 150">
  <defs>
    <style>
      .cls-1 {
        fill: url(#radial-gradient);
      }

      .cls-2 {
        fill: none;
      }
    </style>
    <radialGradient id="radial-gradient" cx="-233.66" cy="495.62" fx="-233.66" fy="495.62" r="2.86" gradientTransform="translate(21031.67 -27168.24) rotate(-125.29) scale(43.62 -66.29)" gradientUnits="userSpaceOnUse">
      <stop offset="0" stop-color="#09ffd0"/>
      <stop offset="1" stop-color="#009eff"/>
    </radialGradient>
  </defs>
  <g id="Layer_3" data-name="Layer 3">
    <g id="Layer_3-2" data-name="Layer 3">
      <g id="Layer_2" data-name="Layer 2">
        <path id="Layer_3-3" data-name="Layer 3" class="cls-2" d="M0,0H150V150H0V0Z"/>
      </g>
    </g>
  </g>
  <path class="cls-1" d="M141.92,45.78c-6.39-13.49-19.43-22.83-34.13-23.93-12.07-1.27-24.56,3.47-32.63,12.56C53.02,8.84,9.93,22.69,3.99,55.61-.94,81.13,13.86,108.48,36.11,120.72c7.88,3.84,15.27-5.89,9.5-12.7-10-11.12-19.72-33.23-12.84-47.69,4.51-10.26,18.03-13.33,25.85-4.69,3.26,3.32,4.51,8.07,6.3,12.29,3.06,9.44,17.1,9.68,19.72-1.06,.08-.36,.16-.73,.24-1.11,1.62-8.07,8.53-16.48,17.32-15.66,17.49,.85,18.72,21.58,12.46,34.47-3.38,7.37-8.78,13.54-14.77,18.87-1.48,1.31-3.18,2.76-4.71,3.99-7.03,5.46-8.83,15.79-3.27,23.2,5.96,8.14,17.82,8.54,24.64,1.29,20.68-21.36,39.66-56.57,25.36-86.14h0Z"/>
</svg>