<svg width="180" height="205" viewBox="0 0 180 205" fill="none" xmlns="http://www.w3.org/2000/svg">
  <path
    d="M32.7428 202.245C33.9555 203.465 35.4714 204.075 37.2904 204.075H48.5079C52.5502 204.075 54.8745 201.941 55.4809 197.673L60.938 160.787H96.3968V137.009H64.5761L72.4586 83.3573H96.3968V59.5797H75.7936L81.2507 22.6939C81.4528 20.8648 80.9475 19.3406 79.7348 18.1212C78.5221 16.9019 77.0063 16.2922 75.1872 16.2922H63.9698C61.9486 16.2922 60.4327 17.0035 59.4222 18.4261C58.4116 19.6455 57.7042 21.068 57.2999 22.6939L51.8428 59.5797H14.5524C12.5312 59.5797 10.9143 60.1894 9.70158 61.4087C8.48888 62.6281 7.88253 64.2539 7.88253 66.2862V76.6508C7.88253 78.6831 8.48888 80.3089 9.70158 81.5283C10.9143 82.7476 12.5312 83.3573 14.5524 83.3573H48.2047L40.3222 137.009H6.66984C4.64867 137.009 3.03174 137.619 1.81905 138.838C0.606349 140.058 0 141.684 0 143.716V154.081C0 156.113 0.606349 157.739 1.81905 158.958C3.03174 160.177 4.64867 160.787 6.66984 160.787H36.6841L31.227 197.673C31.0248 199.502 31.5301 201.026 32.7428 202.245Z"
    fill="#111111" />
  <path
    d="M120.248 44.0877C144 22.2922 116.867 -8.70781 94 2.29218V204.076H170.651C193.595 187.468 162.249 175.288 162.249 175.288C171.5 163.792 155.5 175.288 133 140.792C122 116.792 109.5 67.7922 135 63.7922C141 57.7922 129.338 54.9479 129.338 54.9479C136.5 47.7922 118 50.7922 116.867 47.2297C116.533 46.1779 117.5 45.7922 120.248 44.0877Z"
    fill="#111111" />
  <path
    d="M19.3392 156.512C18.2832 156.512 17.3666 156.366 16.5892 156.072C15.8119 155.764 15.1666 155.346 14.6532 154.818C14.1546 154.29 13.7732 153.674 13.5092 152.97C13.2452 152.266 13.0912 151.511 13.0472 150.704C13.0326 150.308 13.0179 149.861 13.0032 149.362C13.0032 148.849 13.0032 148.336 13.0032 147.822C13.0179 147.294 13.0326 146.825 13.0472 146.414C13.0912 145.608 13.2452 144.86 13.5092 144.17C13.7879 143.466 14.1839 142.858 14.6972 142.344C15.2252 141.816 15.8706 141.406 16.6332 141.112C17.4106 140.819 18.3126 140.672 19.3392 140.672C20.3806 140.672 21.2826 140.819 22.0452 141.112C22.8079 141.406 23.4459 141.816 23.9592 142.344C24.4872 142.858 24.8906 143.466 25.1692 144.17C25.4479 144.86 25.6019 145.608 25.6312 146.414C25.6606 146.825 25.6752 147.294 25.6752 147.822C25.6899 148.336 25.6899 148.849 25.6752 149.362C25.6752 149.861 25.6606 150.308 25.6312 150.704C25.6019 151.511 25.4479 152.266 25.1692 152.97C24.9052 153.674 24.5166 154.29 24.0032 154.818C23.5046 155.346 22.8666 155.764 22.0892 156.072C21.3266 156.366 20.4099 156.512 19.3392 156.512ZM19.3392 153.322C20.1019 153.322 20.6519 153.08 20.9892 152.596C21.3412 152.098 21.5246 151.43 21.5392 150.594C21.5686 150.169 21.5832 149.722 21.5832 149.252C21.5979 148.783 21.5979 148.314 21.5832 147.844C21.5832 147.375 21.5686 146.942 21.5392 146.546C21.5246 145.74 21.3412 145.087 20.9892 144.588C20.6519 144.09 20.1019 143.833 19.3392 143.818C18.5766 143.833 18.0266 144.09 17.6892 144.588C17.3519 145.087 17.1686 145.74 17.1392 146.546C17.1246 146.942 17.1099 147.375 17.0952 147.844C17.0952 148.314 17.0952 148.783 17.0952 149.252C17.1099 149.722 17.1246 150.169 17.1392 150.594C17.1686 151.43 17.3592 152.098 17.7112 152.596C18.0632 153.08 18.6059 153.322 19.3392 153.322ZM32.9724 156.512C31.9164 156.512 30.9997 156.366 30.2224 156.072C29.445 155.764 28.7997 155.346 28.2864 154.818C27.7877 154.29 27.4064 153.674 27.1424 152.97C26.8784 152.266 26.7244 151.511 26.6804 150.704C26.6657 150.308 26.651 149.861 26.6364 149.362C26.6364 148.849 26.6364 148.336 26.6364 147.822C26.651 147.294 26.6657 146.825 26.6804 146.414C26.7244 145.608 26.8784 144.86 27.1424 144.17C27.421 143.466 27.817 142.858 28.3304 142.344C28.8584 141.816 29.5037 141.406 30.2664 141.112C31.0437 140.819 31.9457 140.672 32.9724 140.672C34.0137 140.672 34.9157 140.819 35.6784 141.112C36.441 141.406 37.079 141.816 37.5924 142.344C38.1204 142.858 38.5237 143.466 38.8024 144.17C39.081 144.86 39.235 145.608 39.2644 146.414C39.2937 146.825 39.3084 147.294 39.3084 147.822C39.323 148.336 39.323 148.849 39.3084 149.362C39.3084 149.861 39.2937 150.308 39.2644 150.704C39.235 151.511 39.081 152.266 38.8024 152.97C38.5384 153.674 38.1497 154.29 37.6364 154.818C37.1377 155.346 36.4997 155.764 35.7224 156.072C34.9597 156.366 34.043 156.512 32.9724 156.512ZM32.9724 153.322C33.735 153.322 34.285 153.08 34.6224 152.596C34.9744 152.098 35.1577 151.43 35.1724 150.594C35.2017 150.169 35.2164 149.722 35.2164 149.252C35.231 148.783 35.231 148.314 35.2164 147.844C35.2164 147.375 35.2017 146.942 35.1724 146.546C35.1577 145.74 34.9744 145.087 34.6224 144.588C34.285 144.09 33.735 143.833 32.9724 143.818C32.2097 143.833 31.6597 144.09 31.3224 144.588C30.985 145.087 30.8017 145.74 30.7724 146.546C30.7577 146.942 30.743 147.375 30.7284 147.844C30.7284 148.314 30.7284 148.783 30.7284 149.252C30.743 149.722 30.7577 150.169 30.7724 150.594C30.8017 151.43 30.9924 152.098 31.3444 152.596C31.6964 153.08 32.239 153.322 32.9724 153.322ZM46.6055 156.512C45.5495 156.512 44.6328 156.366 43.8555 156.072C43.0782 155.764 42.4328 155.346 41.9195 154.818C41.4208 154.29 41.0395 153.674 40.7755 152.97C40.5115 152.266 40.3575 151.511 40.3135 150.704C40.2988 150.308 40.2842 149.861 40.2695 149.362C40.2695 148.849 40.2695 148.336 40.2695 147.822C40.2842 147.294 40.2988 146.825 40.3135 146.414C40.3575 145.608 40.5115 144.86 40.7755 144.17C41.0542 143.466 41.4502 142.858 41.9635 142.344C42.4915 141.816 43.1368 141.406 43.8995 141.112C44.6768 140.819 45.5788 140.672 46.6055 140.672C47.6468 140.672 48.5488 140.819 49.3115 141.112C50.0742 141.406 50.7122 141.816 51.2255 142.344C51.7535 142.858 52.1568 143.466 52.4355 144.17C52.7142 144.86 52.8682 145.608 52.8975 146.414C52.9268 146.825 52.9415 147.294 52.9415 147.822C52.9562 148.336 52.9562 148.849 52.9415 149.362C52.9415 149.861 52.9268 150.308 52.8975 150.704C52.8682 151.511 52.7142 152.266 52.4355 152.97C52.1715 153.674 51.7828 154.29 51.2695 154.818C50.7708 155.346 50.1328 155.764 49.3555 156.072C48.5928 156.366 47.6762 156.512 46.6055 156.512ZM46.6055 153.322C47.3682 153.322 47.9182 153.08 48.2555 152.596C48.6075 152.098 48.7908 151.43 48.8055 150.594C48.8348 150.169 48.8495 149.722 48.8495 149.252C48.8642 148.783 48.8642 148.314 48.8495 147.844C48.8495 147.375 48.8348 146.942 48.8055 146.546C48.7908 145.74 48.6075 145.087 48.2555 144.588C47.9182 144.09 47.3682 143.833 46.6055 143.818C45.8428 143.833 45.2928 144.09 44.9555 144.588C44.6182 145.087 44.4348 145.74 44.4055 146.546C44.3908 146.942 44.3762 147.375 44.3615 147.844C44.3615 148.314 44.3615 148.783 44.3615 149.252C44.3762 149.722 44.3908 150.169 44.4055 150.594C44.4348 151.43 44.6255 152.098 44.9775 152.596C45.3295 153.08 45.8722 153.322 46.6055 153.322ZM60.2386 156.512C59.1826 156.512 58.266 156.366 57.4886 156.072C56.7113 155.764 56.066 155.346 55.5526 154.818C55.054 154.29 54.6726 153.674 54.4086 152.97C54.1446 152.266 53.9906 151.511 53.9466 150.704C53.932 150.308 53.9173 149.861 53.9026 149.362C53.9026 148.849 53.9026 148.336 53.9026 147.822C53.9173 147.294 53.932 146.825 53.9466 146.414C53.9906 145.608 54.1446 144.86 54.4086 144.17C54.6873 143.466 55.0833 142.858 55.5966 142.344C56.1246 141.816 56.77 141.406 57.5326 141.112C58.31 140.819 59.212 140.672 60.2386 140.672C61.28 140.672 62.182 140.819 62.9446 141.112C63.7073 141.406 64.3453 141.816 64.8586 142.344C65.3866 142.858 65.79 143.466 66.0686 144.17C66.3473 144.86 66.5013 145.608 66.5306 146.414C66.56 146.825 66.5746 147.294 66.5746 147.822C66.5893 148.336 66.5893 148.849 66.5746 149.362C66.5746 149.861 66.56 150.308 66.5306 150.704C66.5013 151.511 66.3473 152.266 66.0686 152.97C65.8046 153.674 65.416 154.29 64.9026 154.818C64.404 155.346 63.766 155.764 62.9886 156.072C62.226 156.366 61.3093 156.512 60.2386 156.512ZM60.2386 153.322C61.0013 153.322 61.5513 153.08 61.8886 152.596C62.2406 152.098 62.424 151.43 62.4386 150.594C62.468 150.169 62.4826 149.722 62.4826 149.252C62.4973 148.783 62.4973 148.314 62.4826 147.844C62.4826 147.375 62.468 146.942 62.4386 146.546C62.424 145.74 62.2406 145.087 61.8886 144.588C61.5513 144.09 61.0013 143.833 60.2386 143.818C59.476 143.833 58.926 144.09 58.5886 144.588C58.2513 145.087 58.068 145.74 58.0386 146.546C58.024 146.942 58.0093 147.375 57.9946 147.844C57.9946 148.314 57.9946 148.783 57.9946 149.252C58.0093 149.722 58.024 150.169 58.0386 150.594C58.068 151.43 58.2586 152.098 58.6106 152.596C58.9626 153.08 59.5053 153.322 60.2386 153.322ZM73.8718 156.512C72.8158 156.512 71.8991 156.366 71.1218 156.072C70.3444 155.764 69.6991 155.346 69.1857 154.818C68.6871 154.29 68.3057 153.674 68.0417 152.97C67.7777 152.266 67.6237 151.511 67.5797 150.704C67.5651 150.308 67.5504 149.861 67.5357 149.362C67.5357 148.849 67.5357 148.336 67.5357 147.822C67.5504 147.294 67.5651 146.825 67.5797 146.414C67.6237 145.608 67.7777 144.86 68.0417 144.17C68.3204 143.466 68.7164 142.858 69.2297 142.344C69.7577 141.816 70.4031 141.406 71.1657 141.112C71.9431 140.819 72.8451 140.672 73.8718 140.672C74.9131 140.672 75.8151 140.819 76.5777 141.112C77.3404 141.406 77.9784 141.816 78.4918 142.344C79.0198 142.858 79.4231 143.466 79.7018 144.17C79.9804 144.86 80.1344 145.608 80.1637 146.414C80.1931 146.825 80.2078 147.294 80.2078 147.822C80.2224 148.336 80.2224 148.849 80.2078 149.362C80.2078 149.861 80.1931 150.308 80.1637 150.704C80.1344 151.511 79.9804 152.266 79.7018 152.97C79.4378 153.674 79.0491 154.29 78.5357 154.818C78.0371 155.346 77.3991 155.764 76.6218 156.072C75.8591 156.366 74.9424 156.512 73.8718 156.512ZM73.8718 153.322C74.6344 153.322 75.1844 153.08 75.5218 152.596C75.8738 152.098 76.0571 151.43 76.0717 150.594C76.1011 150.169 76.1158 149.722 76.1158 149.252C76.1304 148.783 76.1304 148.314 76.1158 147.844C76.1158 147.375 76.1011 146.942 76.0717 146.546C76.0571 145.74 75.8738 145.087 75.5218 144.588C75.1844 144.09 74.6344 143.833 73.8718 143.818C73.1091 143.833 72.5591 144.09 72.2217 144.588C71.8844 145.087 71.7011 145.74 71.6717 146.546C71.6571 146.942 71.6424 147.375 71.6278 147.844C71.6278 148.314 71.6278 148.783 71.6278 149.252C71.6424 149.722 71.6571 150.169 71.6717 150.594C71.7011 151.43 71.8917 152.098 72.2438 152.596C72.5957 153.08 73.1384 153.322 73.8718 153.322ZM87.5049 156.512C86.4489 156.512 85.5322 156.366 84.7549 156.072C83.9775 155.764 83.3322 155.346 82.8189 154.818C82.3202 154.29 81.9389 153.674 81.6749 152.97C81.4109 152.266 81.2569 151.511 81.2129 150.704C81.1982 150.308 81.1835 149.861 81.1689 149.362C81.1689 148.849 81.1689 148.336 81.1689 147.822C81.1835 147.294 81.1982 146.825 81.2129 146.414C81.2569 145.608 81.4109 144.86 81.6749 144.17C81.9535 143.466 82.3495 142.858 82.8629 142.344C83.3909 141.816 84.0362 141.406 84.7989 141.112C85.5762 140.819 86.4782 140.672 87.5049 140.672C88.5462 140.672 89.4482 140.819 90.2109 141.112C90.9735 141.406 91.6115 141.816 92.1249 142.344C92.6529 142.858 93.0562 143.466 93.3349 144.17C93.6135 144.86 93.7675 145.608 93.7969 146.414C93.8262 146.825 93.8409 147.294 93.8409 147.822C93.8555 148.336 93.8555 148.849 93.8409 149.362C93.8409 149.861 93.8262 150.308 93.7969 150.704C93.7675 151.511 93.6135 152.266 93.3349 152.97C93.0709 153.674 92.6822 154.29 92.1689 154.818C91.6702 155.346 91.0322 155.764 90.2549 156.072C89.4922 156.366 88.5755 156.512 87.5049 156.512ZM87.5049 153.322C88.2675 153.322 88.8175 153.08 89.1549 152.596C89.5069 152.098 89.6902 151.43 89.7049 150.594C89.7342 150.169 89.7489 149.722 89.7489 149.252C89.7635 148.783 89.7635 148.314 89.7489 147.844C89.7489 147.375 89.7342 146.942 89.7049 146.546C89.6902 145.74 89.5069 145.087 89.1549 144.588C88.8175 144.09 88.2675 143.833 87.5049 143.818C86.7422 143.833 86.1922 144.09 85.8549 144.588C85.5175 145.087 85.3342 145.74 85.3049 146.546C85.2902 146.942 85.2755 147.375 85.2609 147.844C85.2609 148.314 85.2609 148.783 85.2609 149.252C85.2755 149.722 85.2902 150.169 85.3049 150.594C85.3342 151.43 85.5249 152.098 85.8769 152.596C86.2289 153.08 86.7715 153.322 87.5049 153.322Z"
    fill="#C9C9C9" />
  <path
    d="M28.0712 79.2922C27.9099 79.2922 27.7779 79.2409 27.6752 79.1382C27.5726 79.0355 27.5212 78.9035 27.5212 78.7422L27.5212 64.4422C27.5212 64.2809 27.5726 64.1489 27.6752 64.0462C27.7779 63.9435 27.9099 63.8922 28.0712 63.8922H38.1692C38.3306 63.8922 38.4626 63.9435 38.5652 64.0462C38.6826 64.1489 38.7412 64.2809 38.7412 64.4422V66.6642C38.7412 66.8255 38.6826 66.9575 38.5652 67.0602C38.4626 67.1629 38.3306 67.2142 38.1692 67.2142H31.3932V70.4482H37.7292C37.8906 70.4482 38.0226 70.5069 38.1252 70.6242C38.2426 70.7269 38.3012 70.8589 38.3012 71.0202V73.2202C38.3012 73.3669 38.2426 73.4989 38.1252 73.6162C38.0226 73.7189 37.8906 73.7702 37.7292 73.7702H31.3932V78.7422C31.3932 78.9035 31.3419 79.0355 31.2392 79.1382C31.1366 79.2409 31.0046 79.2922 30.8432 79.2922H28.0712ZM41.7594 79.2922C41.598 79.2922 41.466 79.2409 41.3634 79.1382C41.2607 79.0355 41.2094 78.9035 41.2094 78.7422V64.4422C41.2094 64.2809 41.2607 64.1489 41.3634 64.0462C41.466 63.9435 41.598 63.8922 41.7594 63.8922L51.8574 63.8922C52.0187 63.8922 52.1507 63.9435 52.2534 64.0462C52.3707 64.1489 52.4294 64.2809 52.4294 64.4422V66.6642C52.4294 66.8255 52.3707 66.9575 52.2534 67.0602C52.1507 67.1629 52.0187 67.2142 51.8574 67.2142H45.0814V70.4482H51.4174C51.5787 70.4482 51.7107 70.5069 51.8134 70.6242C51.9307 70.7269 51.9894 70.8589 51.9894 71.0202V73.2202C51.9894 73.3669 51.9307 73.4989 51.8134 73.6162C51.7107 73.7189 51.5787 73.7702 51.4174 73.7702H45.0814V78.7422C45.0814 78.9035 45.03 79.0355 44.9274 79.1382C44.8247 79.2409 44.6927 79.2922 44.5314 79.2922H41.7594ZM55.4475 79.2922C55.2862 79.2922 55.1542 79.2409 55.0515 79.1382C54.9488 79.0355 54.8975 78.9035 54.8975 78.7422V64.4422C54.8975 64.2809 54.9488 64.1489 55.0515 64.0462C55.1542 63.9435 55.2862 63.8922 55.4475 63.8922H65.5455C65.7068 63.8922 65.8388 63.9435 65.9415 64.0462C66.0588 64.1489 66.1175 64.2809 66.1175 64.4422V66.6642C66.1175 66.8255 66.0588 66.9575 65.9415 67.0602C65.8388 67.1629 65.7068 67.2142 65.5455 67.2142H58.7695V70.4482H65.1055C65.2668 70.4482 65.3988 70.5069 65.5015 70.6242C65.6188 70.7269 65.6775 70.8589 65.6775 71.0202V73.2202C65.6775 73.3669 65.6188 73.4989 65.5015 73.6162C65.3988 73.7189 65.2668 73.7702 65.1055 73.7702H58.7695V78.7422C58.7695 78.9035 58.7182 79.0355 58.6155 79.1382C58.5128 79.2409 58.3808 79.2922 58.2195 79.2922H55.4475ZM69.1356 79.2922C68.9743 79.2922 68.8423 79.2409 68.7396 79.1382C68.637 79.0355 68.5856 78.9035 68.5856 78.7422V64.4422C68.5856 64.2809 68.637 64.1489 68.7396 64.0462C68.8423 63.9435 68.9743 63.8922 69.1356 63.8922H79.2336C79.395 63.8922 79.527 63.9435 79.6296 64.0462C79.747 64.1489 79.8056 64.2809 79.8056 64.4422V66.6642C79.8056 66.8255 79.747 66.9575 79.6296 67.0602C79.527 67.1629 79.395 67.2142 79.2336 67.2142L72.4576 67.2142V70.4482L78.7936 70.4482C78.955 70.4482 79.087 70.5069 79.1896 70.6242C79.307 70.7269 79.3656 70.8589 79.3656 71.0202V73.2202C79.3656 73.3669 79.307 73.4989 79.1896 73.6162C79.087 73.7189 78.955 73.7702 78.7936 73.7702L72.4576 73.7702V78.7422C72.4576 78.9035 72.4063 79.0355 72.3036 79.1382C72.201 79.2409 72.069 79.2922 71.9076 79.2922H69.1356ZM82.8237 79.2922C82.6624 79.2922 82.5304 79.2409 82.4277 79.1382C82.3251 79.0355 82.2737 78.9035 82.2737 78.7422V64.4422C82.2737 64.2809 82.3251 64.1489 82.4277 64.0462C82.5304 63.9435 82.6624 63.8922 82.8237 63.8922L92.9217 63.8922C93.0831 63.8922 93.2151 63.9435 93.3177 64.0462C93.4351 64.1489 93.4937 64.2809 93.4937 64.4422V66.6642C93.4937 66.8255 93.4351 66.9575 93.3177 67.0602C93.2151 67.1629 93.0831 67.2142 92.9217 67.2142H86.1457V70.4482H92.4817C92.6431 70.4482 92.7751 70.5069 92.8777 70.6242C92.9951 70.7269 93.0537 70.8589 93.0537 71.0202V73.2202C93.0537 73.3669 92.9951 73.4989 92.8777 73.6162C92.7751 73.7189 92.6431 73.7702 92.4817 73.7702H86.1457V78.7422C86.1457 78.9035 86.0944 79.0355 85.9917 79.1382C85.8891 79.2409 85.7571 79.2922 85.5957 79.2922H82.8237ZM96.5119 79.2922C96.3505 79.2922 96.2185 79.2409 96.1159 79.1382C96.0132 79.0355 95.9619 78.9035 95.9619 78.7422V64.4422C95.9619 64.2809 96.0132 64.1489 96.1159 64.0462C96.2185 63.9435 96.3505 63.8922 96.5119 63.8922H106.61C106.771 63.8922 106.903 63.9435 107.006 64.0462C107.123 64.1489 107.182 64.2809 107.182 64.4422V66.6642C107.182 66.8255 107.123 66.9575 107.006 67.0602C106.903 67.1629 106.771 67.2142 106.61 67.2142H99.8339V70.4482H106.17C106.331 70.4482 106.463 70.5069 106.566 70.6242C106.683 70.7269 106.742 70.8589 106.742 71.0202V73.2202C106.742 73.3669 106.683 73.4989 106.566 73.6162C106.463 73.7189 106.331 73.7702 106.17 73.7702H99.8339V78.7422C99.8339 78.9035 99.7825 79.0355 99.6799 79.1382C99.5772 79.2409 99.4452 79.2922 99.2839 79.2922H96.5119Z"
    fill="#C9C9C9" />
</svg>